<svg width="112" height="112" viewBox="0 0 112 112" fill="none" xmlns="http://www.w3.org/2000/svg">
<path d="M56 112C86.9279 112 112 86.9279 112 56C112 25.0721 86.9279 0 56 0C25.0721 0 0 25.0721 0 56C0 86.9279 25.0721 112 56 112Z" fill="#EFF8FF"/>
<path d="M48 74V46C48 44.1401 48 43.2101 48.2044 42.4471C48.7592 40.3765 50.3765 38.7592 52.4471 38.2044C53.2101 38 54.1401 38 56 38C57.8599 38 58.7899 38 59.5529 38.2044C61.6235 38.7592 63.2408 40.3765 63.7956 42.4471C64 43.2101 64 44.1401 64 46V74M42.4 74H69.6C71.8402 74 72.9603 74 73.816 73.564C74.5686 73.1805 75.1805 72.5686 75.564 71.816C76 70.9603 76 69.8402 76 67.6V52.4C76 50.1598 76 49.0397 75.564 48.184C75.1805 47.4314 74.5686 46.8195 73.816 46.436C72.9603 46 71.8402 46 69.6 46H42.4C40.1598 46 39.0397 46 38.184 46.436C37.4314 46.8195 36.8195 47.4314 36.436 48.184C36 49.0397 36 50.1598 36 52.4V67.6C36 69.8402 36 70.9603 36.436 71.816C36.8195 72.5686 37.4314 73.1805 38.184 73.564C39.0397 74 40.1598 74 42.4 74Z" stroke="#0047AB" stroke-width="4" stroke-linecap="round" stroke-linejoin="round"/>
</svg>
