<svg width="112" height="112" viewBox="0 0 112 112" fill="none" xmlns="http://www.w3.org/2000/svg">
<path d="M56 112C86.9279 112 112 86.9279 112 56C112 25.0721 86.9279 0 56 0C25.0721 0 0 25.0721 0 56C0 86.9279 25.0721 112 56 112Z" fill="#EFF8FF"/>
<path d="M36 46L52.3298 57.4309C53.6522 58.3565 54.3134 58.8193 55.0325 58.9986C55.6678 59.157 56.3322 59.157 56.9675 58.9986C57.6866 58.8193 58.3478 58.3565 59.6702 57.4309L76 46M45.6 72H66.4C69.7603 72 71.4405 72 72.7239 71.346C73.8529 70.7708 74.7708 69.8529 75.346 68.7239C76 67.4405 76 65.7603 76 62.4V49.6C76 46.2397 76 44.5595 75.346 43.2761C74.7708 42.1471 73.8529 41.2292 72.7239 40.654C71.4405 40 69.7603 40 66.4 40H45.6C42.2397 40 40.5595 40 39.2761 40.654C38.1471 41.2292 37.2292 42.1471 36.654 43.2761C36 44.5595 36 46.2397 36 49.6V62.4C36 65.7603 36 67.4405 36.654 68.7239C37.2292 69.8529 38.1471 70.7708 39.2761 71.346C40.5595 72 42.2397 72 45.6 72Z" stroke="#0047AB" stroke-width="4" stroke-linecap="round" stroke-linejoin="round"/>
</svg>
