<svg width="113" height="112" viewBox="0 0 113 112" fill="none" xmlns="http://www.w3.org/2000/svg">
<path d="M56.9326 112C87.8606 112 112.933 86.9279 112.933 56C112.933 25.0721 87.8606 0 56.9326 0C26.0047 0 0.932617 25.0721 0.932617 56C0.932617 86.9279 26.0047 112 56.9326 112Z" fill="url(#paint0_linear_2711_7626)"/>
<path d="M90.5325 112H23.3325V39.5733C26.4999 39.5698 29.5365 38.31 31.7762 36.0703C34.0158 33.8307 35.2756 30.794 35.2792 27.6267H78.5858C78.5825 29.1957 78.8903 30.7498 79.4916 32.1991C80.0928 33.6484 80.9754 34.964 82.0885 36.07C83.1943 37.1833 84.5101 38.0663 85.9595 38.6676C87.4089 39.269 88.9633 39.5768 90.5325 39.5733V112Z" fill="white"/>
<path d="M56.9327 76.16C66.8296 76.16 74.8527 68.1369 74.8527 58.24C74.8527 48.3431 66.8296 40.32 56.9327 40.32C47.0358 40.32 39.0127 48.3431 39.0127 58.24C39.0127 68.1369 47.0358 76.16 56.9327 76.16Z" fill="#0047AB"/>
<path d="M63.2683 66.6877L56.9326 60.352L50.5969 66.6877L48.485 64.5758L54.8207 58.2401L48.485 51.9044L50.5969 49.7926L56.9326 56.1282L63.2683 49.7926L65.3802 51.9044L59.0445 58.2401L65.3802 64.5758L63.2683 66.6877Z" fill="white"/>
<path d="M66.6392 80.64H47.2258C45.9887 80.64 44.9858 81.6429 44.9858 82.88C44.9858 84.1171 45.9887 85.12 47.2258 85.12H66.6392C67.8763 85.12 68.8792 84.1171 68.8792 82.88C68.8792 81.6429 67.8763 80.64 66.6392 80.64Z" fill="#DFEAFB"/>
<path d="M73.3594 89.6H40.5061C39.269 89.6 38.2661 90.6029 38.2661 91.84C38.2661 93.0771 39.269 94.08 40.5061 94.08H73.3594C74.5966 94.08 75.5994 93.0771 75.5994 91.84C75.5994 90.6029 74.5966 89.6 73.3594 89.6Z" fill="#DFEAFB"/>
<defs>
<linearGradient id="paint0_linear_2711_7626" x1="56.9326" y1="0" x2="56.9326" y2="112" gradientUnits="userSpaceOnUse">
<stop stop-color="#E3ECFA"/>
<stop offset="1" stop-color="#DAE7FF"/>
</linearGradient>
</defs>
</svg>
