<svg width="112" height="112" viewBox="0 0 112 112" fill="none" xmlns="http://www.w3.org/2000/svg">
<path d="M56 112C86.9279 112 112 86.9279 112 56C112 25.0721 86.9279 0 56 0C25.0721 0 0 25.0721 0 56C0 86.9279 25.0721 112 56 112Z" fill="#EFF8FF"/>
<g clip-path="url(#clip0_2711_8482)">
<path d="M76.4567 32H35.5433C34.6036 32 33.7023 32.3733 33.0378 33.0378C32.3733 33.7023 32 34.6036 32 35.5433V76.4567C32 77.3964 32.3733 78.2977 33.0378 78.9622C33.7023 79.6267 34.6036 80 35.5433 80H76.4567C77.3964 80 78.2977 79.6267 78.9622 78.9622C79.6267 78.2977 80 77.3964 80 76.4567V35.5433C80 34.6036 79.6267 33.7023 78.9622 33.0378C78.2977 32.3733 77.3964 32 76.4567 32ZM46.3067 72.89H39.09V49.9667H46.3067V72.89ZM42.6933 46.79C41.8747 46.7854 41.0758 46.5384 40.3975 46.0802C39.7191 45.622 39.1917 44.9731 38.8818 44.2154C38.5718 43.4577 38.4933 42.6252 38.6561 41.8229C38.8188 41.0206 39.2156 40.2846 39.7963 39.7076C40.377 39.1306 41.1156 38.7385 41.9189 38.5809C42.7222 38.4233 43.5542 38.5072 44.3099 38.822C45.0656 39.1368 45.7111 39.6683 46.1649 40.3496C46.6188 41.0309 46.8606 41.8314 46.86 42.65C46.8677 43.1981 46.765 43.7421 46.558 44.2496C46.351 44.7571 46.044 45.2178 45.6551 45.6041C45.2663 45.9905 44.8037 46.2946 44.2948 46.4983C43.786 46.702 43.2413 46.8012 42.6933 46.79ZM72.9067 72.91H65.6933V60.3867C65.6933 56.6933 64.1233 55.5533 62.0967 55.5533C59.9567 55.5533 57.8567 57.1667 57.8567 60.48V72.91H50.64V49.9833H57.58V53.16H57.6733C58.37 51.75 60.81 49.34 64.5333 49.34C68.56 49.34 72.91 51.73 72.91 58.73L72.9067 72.91Z" fill="#0A66C2"/>
</g>
<defs>
<clipPath id="clip0_2711_8482">
<rect width="48" height="48" fill="white" transform="translate(32 32)"/>
</clipPath>
</defs>
</svg>
