<svg width="125" height="112" viewBox="0 0 125 112" fill="none" xmlns="http://www.w3.org/2000/svg">
<path d="M62.5596 112C93.4875 112 118.56 86.9279 118.56 56C118.56 25.0721 93.4875 0 62.5596 0C31.6316 0 6.55957 25.0721 6.55957 56C6.55957 86.9279 31.6316 112 62.5596 112Z" fill="url(#paint0_linear_2711_7602)"/>
<g filter="url(#filter0_d_2711_7602)">
<path d="M10.7952 23.2188H115.071C116.095 23.2188 117.078 23.6257 117.802 24.35C118.526 25.0743 118.933 26.0566 118.933 27.0809V46.3913C118.933 47.4155 118.526 48.3979 117.802 49.1222C117.078 49.8464 116.095 50.2533 115.071 50.2533H10.7952C9.77089 50.2533 8.78856 49.8464 8.06428 49.1222C7.34 48.3979 6.93311 47.4155 6.93311 46.3913V27.0809C6.93311 26.0566 7.34 25.0743 8.06428 24.35C8.78856 23.6257 9.77089 23.2188 10.7952 23.2188Z" fill="white"/>
</g>
<path d="M60.2296 29.3978H40.1468C38.8671 29.3978 37.8296 30.4352 37.8296 31.715C37.8296 32.9948 38.8671 34.0323 40.1468 34.0323H60.2296C61.5094 34.0323 62.5468 32.9948 62.5468 31.715C62.5468 30.4352 61.5094 29.3978 60.2296 29.3978Z" fill="#B4DAFF"/>
<path d="M74.133 39.4392H40.1468C38.8671 39.4392 37.8296 40.4766 37.8296 41.7564C37.8296 43.0362 38.8671 44.0736 40.1468 44.0736H74.133C75.4128 44.0736 76.4503 43.0362 76.4503 41.7564C76.4503 40.4766 75.4128 39.4392 74.133 39.4392Z" fill="#DEE9FC"/>
<path d="M31.651 36.7369C31.651 30.5513 26.6366 25.5369 20.451 25.5369C14.2654 25.5369 9.25098 30.5513 9.25098 36.7369C9.25098 42.9225 14.2654 47.9369 20.451 47.9369C26.6366 47.9369 31.651 42.9225 31.651 36.7369Z" fill="#0047AB"/>
<path d="M19.7562 40.3647C20.715 40.3645 21.6463 40.0437 22.4017 39.4532L24.7769 41.8284L25.5408 41.0645L23.1648 38.6885C23.7618 37.9168 24.0797 36.9655 24.0669 35.9899C24.054 35.0143 23.711 34.0718 23.094 33.316C22.4769 32.5603 21.622 32.0358 20.6686 31.8281C19.7153 31.6204 18.7197 31.7417 17.8441 32.1722C16.9686 32.6028 16.2646 33.3172 15.8471 34.199C15.4295 35.0808 15.3229 36.0781 15.5446 37.0283C15.7664 37.9784 16.3034 38.8255 17.0682 39.4313C17.833 40.0372 18.7805 40.3662 19.7562 40.3647V40.3647ZM19.7562 32.7997C20.3978 32.7997 21.025 32.9899 21.5585 33.3464C22.092 33.7029 22.5078 34.2095 22.7534 34.8023C22.9989 35.3951 23.0632 36.0474 22.938 36.6767C22.8128 37.306 22.5038 37.884 22.0501 38.3378C21.5964 38.7915 21.0184 39.1004 20.3891 39.2256C19.7598 39.3508 19.1075 39.2865 18.5147 39.041C17.9219 38.7955 17.4153 38.3796 17.0588 37.8461C16.7023 37.3127 16.512 36.6854 16.512 36.0438C16.512 35.1834 16.8538 34.3582 17.4622 33.7498C18.0706 33.1415 18.8958 32.7997 19.7562 32.7997V32.7997Z" fill="white"/>
<g filter="url(#filter1_d_2711_7602)">
<path d="M115.071 60.2533H10.7952C8.66221 60.2533 6.93311 61.9824 6.93311 64.1154V83.4257C6.93311 85.5587 8.66221 87.2878 10.7952 87.2878H115.071C117.204 87.2878 118.933 85.5587 118.933 83.4257V64.1154C118.933 61.9824 117.204 60.2533 115.071 60.2533Z" fill="white"/>
</g>
<path d="M60.2296 66.4323H40.1468C38.8671 66.4323 37.8296 67.4697 37.8296 68.7495C37.8296 70.0293 38.8671 71.0667 40.1468 71.0667H60.2296C61.5094 71.0667 62.5468 70.0293 62.5468 68.7495C62.5468 67.4697 61.5094 66.4323 60.2296 66.4323Z" fill="#B4DAFF"/>
<path d="M74.133 76.4736H40.1468C38.8671 76.4736 37.8296 77.5111 37.8296 78.7909C37.8296 80.0707 38.8671 81.1081 40.1468 81.1081H74.133C75.4128 81.1081 76.4503 80.0707 76.4503 78.7909C76.4503 77.5111 75.4128 76.4736 74.133 76.4736Z" fill="#DEE9FC"/>
<path d="M31.651 73.7714C31.651 67.5858 26.6366 62.5714 20.451 62.5714C14.2654 62.5714 9.25098 67.5858 9.25098 73.7714C9.25098 79.957 14.2654 84.9714 20.451 84.9714C26.6366 84.9714 31.651 79.957 31.651 73.7714Z" fill="#0047AB"/>
<path d="M19.7562 77.3992C20.715 77.399 21.6463 77.0782 22.4017 76.4877L24.7769 78.8629L25.5408 78.099L23.1648 75.723C23.7618 74.9512 24.0797 74 24.0669 73.0244C24.054 72.0488 23.711 71.1063 23.094 70.3505C22.4769 69.5948 21.622 69.0703 20.6686 68.8626C19.7153 68.6548 18.7197 68.7761 17.8441 69.2067C16.9686 69.6372 16.2646 70.3516 15.8471 71.2335C15.4295 72.1153 15.3229 73.1126 15.5446 74.0627C15.7664 75.0129 16.3034 75.86 17.0682 76.4658C17.833 77.0717 18.7805 77.4007 19.7562 77.3992V77.3992ZM19.7562 69.8341C20.3978 69.8341 21.025 70.0244 21.5585 70.3809C22.092 70.7374 22.5078 71.244 22.7534 71.8368C22.9989 72.4296 23.0632 73.0819 22.938 73.7112C22.8128 74.3405 22.5038 74.9185 22.0501 75.3722C21.5964 75.8259 21.0184 76.1349 20.3891 76.2601C19.7598 76.3853 19.1075 76.321 18.5147 76.0755C17.9219 75.8299 17.4153 75.4141 17.0588 74.8806C16.7023 74.3471 16.512 73.7199 16.512 73.0783C16.512 72.2179 16.8538 71.3927 17.4622 70.7843C18.0706 70.1759 18.8958 69.8341 19.7562 69.8341V69.8341Z" fill="white"/>
<defs>
<filter id="filter0_d_2711_7602" x="0.933105" y="20.2188" width="124" height="39.0345" filterUnits="userSpaceOnUse" color-interpolation-filters="sRGB">
<feFlood flood-opacity="0" result="BackgroundImageFix"/>
<feColorMatrix in="SourceAlpha" type="matrix" values="0 0 0 0 0 0 0 0 0 0 0 0 0 0 0 0 0 0 127 0" result="hardAlpha"/>
<feOffset dy="3"/>
<feGaussianBlur stdDeviation="3"/>
<feColorMatrix type="matrix" values="0 0 0 0 0 0 0 0 0 0 0 0 0 0 0 0 0 0 0.161 0"/>
<feBlend mode="normal" in2="BackgroundImageFix" result="effect1_dropShadow_2711_7602"/>
<feBlend mode="normal" in="SourceGraphic" in2="effect1_dropShadow_2711_7602" result="shape"/>
</filter>
<filter id="filter1_d_2711_7602" x="0.933105" y="57.2533" width="124" height="39.0345" filterUnits="userSpaceOnUse" color-interpolation-filters="sRGB">
<feFlood flood-opacity="0" result="BackgroundImageFix"/>
<feColorMatrix in="SourceAlpha" type="matrix" values="0 0 0 0 0 0 0 0 0 0 0 0 0 0 0 0 0 0 127 0" result="hardAlpha"/>
<feOffset dy="3"/>
<feGaussianBlur stdDeviation="3"/>
<feColorMatrix type="matrix" values="0 0 0 0 0 0 0 0 0 0 0 0 0 0 0 0 0 0 0.161 0"/>
<feBlend mode="normal" in2="BackgroundImageFix" result="effect1_dropShadow_2711_7602"/>
<feBlend mode="normal" in="SourceGraphic" in2="effect1_dropShadow_2711_7602" result="shape"/>
</filter>
<linearGradient id="paint0_linear_2711_7602" x1="62.5596" y1="0" x2="62.5596" y2="112" gradientUnits="userSpaceOnUse">
<stop stop-color="#E3ECFA"/>
<stop offset="1" stop-color="#DAE7FF"/>
</linearGradient>
</defs>
</svg>
