<svg width="112" height="112" viewBox="0 0 112 112" fill="none" xmlns="http://www.w3.org/2000/svg">
<path d="M56 112C86.9279 112 112 86.9279 112 56C112 25.0721 86.9279 0 56 0C25.0721 0 0 25.0721 0 56C0 86.9279 25.0721 112 56 112Z" fill="#EFF8FF"/>
<g clip-path="url(#clip0_2711_8477)">
<path d="M52 56C52 47.1634 44.8366 40 36 40C27.1634 40 20 47.1634 20 56C20 63.9859 25.8509 70.6053 33.5 71.8056V60.625H29.4375V56H33.5V52.475C33.5 48.465 35.8888 46.25 39.5434 46.25C41.2934 46.25 43.125 46.5625 43.125 46.5625V50.5H41.1075C39.12 50.5 38.5 51.7334 38.5 53V56H42.9375L42.2281 60.625H38.5V71.8056C46.1491 70.6053 52 63.9859 52 56Z" fill="#1877F2"/>
<path d="M42.2281 60.625L42.9375 56H38.5V53C38.5 51.7347 39.12 50.5 41.1075 50.5H43.125V46.5625C43.125 46.5625 41.2941 46.25 39.5434 46.25C35.8888 46.25 33.5 48.465 33.5 52.475V56H29.4375V60.625H33.5V71.8056C35.1566 72.0648 36.8434 72.0648 38.5 71.8056V60.625H42.2281Z" fill="white"/>
</g>
<g clip-path="url(#clip1_2711_8477)">
<path d="M76 42.8812C80.275 42.8812 80.7813 42.9 82.4625 42.975C84.025 43.0437 84.8688 43.3063 85.4313 43.525C86.175 43.8125 86.7125 44.1625 87.2688 44.7188C87.8313 45.2813 88.175 45.8125 88.4625 46.5563C88.6813 47.1188 88.9438 47.9687 89.0125 49.525C89.0875 51.2125 89.1063 51.7188 89.1063 55.9875C89.1063 60.2625 89.0875 60.7688 89.0125 62.45C88.9438 64.0125 88.6813 64.8563 88.4625 65.4188C88.175 66.1625 87.825 66.7 87.2688 67.2563C86.7063 67.8188 86.175 68.1625 85.4313 68.45C84.8688 68.6688 84.0188 68.9313 82.4625 69C80.775 69.075 80.2688 69.0938 76 69.0938C71.725 69.0938 71.2188 69.075 69.5375 69C67.975 68.9313 67.1313 68.6688 66.5688 68.45C65.825 68.1625 65.2875 67.8125 64.7313 67.2563C64.1688 66.6938 63.825 66.1625 63.5375 65.4188C63.3188 64.8563 63.0563 64.0063 62.9875 62.45C62.9125 60.7625 62.8938 60.2563 62.8938 55.9875C62.8938 51.7125 62.9125 51.2062 62.9875 49.525C63.0563 47.9625 63.3188 47.1188 63.5375 46.5563C63.825 45.8125 64.175 45.275 64.7313 44.7188C65.2938 44.1563 65.825 43.8125 66.5688 43.525C67.1313 43.3063 67.9813 43.0437 69.5375 42.975C71.2188 42.9 71.725 42.8812 76 42.8812ZM76 40C71.6563 40 71.1125 40.0187 69.4063 40.0938C67.7063 40.1688 66.5375 40.4437 65.525 40.8375C64.4688 41.25 63.575 41.7938 62.6875 42.6875C61.7938 43.575 61.25 44.4688 60.8375 45.5188C60.4437 46.5375 60.1688 47.7 60.0938 49.4C60.0188 51.1125 60 51.6563 60 56C60 60.3438 60.0188 60.8875 60.0938 62.5938C60.1688 64.2938 60.4437 65.4625 60.8375 66.475C61.25 67.5313 61.7938 68.425 62.6875 69.3125C63.575 70.2 64.4688 70.75 65.5188 71.1563C66.5375 71.55 67.7 71.825 69.4 71.9C71.1063 71.975 71.65 71.9937 75.9938 71.9937C80.3375 71.9937 80.8813 71.975 82.5875 71.9C84.2875 71.825 85.4563 71.55 86.4688 71.1563C87.5188 70.75 88.4125 70.2 89.3 69.3125C90.1875 68.425 90.7375 67.5313 91.1438 66.4813C91.5375 65.4625 91.8125 64.3 91.8875 62.6C91.9625 60.8938 91.9813 60.35 91.9813 56.0063C91.9813 51.6625 91.9625 51.1188 91.8875 49.4125C91.8125 47.7125 91.5375 46.5438 91.1438 45.5313C90.75 44.4688 90.2063 43.575 89.3125 42.6875C88.425 41.8 87.5313 41.25 86.4813 40.8438C85.4625 40.45 84.3 40.175 82.6 40.1C80.8875 40.0188 80.3438 40 76 40Z" fill="#000100"/>
<path d="M76 42.8812C80.275 42.8812 80.7813 42.9 82.4625 42.975C84.025 43.0437 84.8688 43.3063 85.4313 43.525C86.175 43.8125 86.7125 44.1625 87.2688 44.7188C87.8313 45.2813 88.175 45.8125 88.4625 46.5563C88.6813 47.1188 88.9438 47.9687 89.0125 49.525C89.0875 51.2125 89.1063 51.7188 89.1063 55.9875C89.1063 60.2625 89.0875 60.7688 89.0125 62.45C88.9438 64.0125 88.6813 64.8563 88.4625 65.4188C88.175 66.1625 87.825 66.7 87.2688 67.2563C86.7063 67.8188 86.175 68.1625 85.4313 68.45C84.8688 68.6688 84.0188 68.9313 82.4625 69C80.775 69.075 80.2688 69.0938 76 69.0938C71.725 69.0938 71.2188 69.075 69.5375 69C67.975 68.9313 67.1313 68.6688 66.5688 68.45C65.825 68.1625 65.2875 67.8125 64.7313 67.2563C64.1688 66.6938 63.825 66.1625 63.5375 65.4188C63.3188 64.8563 63.0563 64.0063 62.9875 62.45C62.9125 60.7625 62.8938 60.2563 62.8938 55.9875C62.8938 51.7125 62.9125 51.2062 62.9875 49.525C63.0563 47.9625 63.3188 47.1188 63.5375 46.5563C63.825 45.8125 64.175 45.275 64.7313 44.7188C65.2938 44.1563 65.825 43.8125 66.5688 43.525C67.1313 43.3063 67.9813 43.0437 69.5375 42.975C71.2188 42.9 71.725 42.8812 76 42.8812ZM76 40C71.6563 40 71.1125 40.0187 69.4063 40.0938C67.7063 40.1688 66.5375 40.4437 65.525 40.8375C64.4688 41.25 63.575 41.7938 62.6875 42.6875C61.7938 43.575 61.25 44.4688 60.8375 45.5188C60.4437 46.5375 60.1688 47.7 60.0938 49.4C60.0188 51.1125 60 51.6563 60 56C60 60.3438 60.0188 60.8875 60.0938 62.5938C60.1688 64.2938 60.4437 65.4625 60.8375 66.475C61.25 67.5313 61.7938 68.425 62.6875 69.3125C63.575 70.2 64.4688 70.75 65.5188 71.1563C66.5375 71.55 67.7 71.825 69.4 71.9C71.1063 71.975 71.65 71.9937 75.9938 71.9937C80.3375 71.9937 80.8813 71.975 82.5875 71.9C84.2875 71.825 85.4563 71.55 86.4688 71.1563C87.5188 70.75 88.4125 70.2 89.3 69.3125C90.1875 68.425 90.7375 67.5313 91.1438 66.4813C91.5375 65.4625 91.8125 64.3 91.8875 62.6C91.9625 60.8938 91.9813 60.35 91.9813 56.0063C91.9813 51.6625 91.9625 51.1188 91.8875 49.4125C91.8125 47.7125 91.5375 46.5438 91.1438 45.5313C90.75 44.4688 90.2063 43.575 89.3125 42.6875C88.425 41.8 87.5313 41.25 86.4813 40.8438C85.4625 40.45 84.3 40.175 82.6 40.1C80.8875 40.0188 80.3438 40 76 40Z" fill="url(#paint0_radial_2711_8477)"/>
<path d="M76 42.8812C80.275 42.8812 80.7813 42.9 82.4625 42.975C84.025 43.0437 84.8688 43.3063 85.4313 43.525C86.175 43.8125 86.7125 44.1625 87.2688 44.7188C87.8313 45.2813 88.175 45.8125 88.4625 46.5563C88.6813 47.1188 88.9438 47.9687 89.0125 49.525C89.0875 51.2125 89.1063 51.7188 89.1063 55.9875C89.1063 60.2625 89.0875 60.7688 89.0125 62.45C88.9438 64.0125 88.6813 64.8563 88.4625 65.4188C88.175 66.1625 87.825 66.7 87.2688 67.2563C86.7063 67.8188 86.175 68.1625 85.4313 68.45C84.8688 68.6688 84.0188 68.9313 82.4625 69C80.775 69.075 80.2688 69.0938 76 69.0938C71.725 69.0938 71.2188 69.075 69.5375 69C67.975 68.9313 67.1313 68.6688 66.5688 68.45C65.825 68.1625 65.2875 67.8125 64.7313 67.2563C64.1688 66.6938 63.825 66.1625 63.5375 65.4188C63.3188 64.8563 63.0563 64.0063 62.9875 62.45C62.9125 60.7625 62.8938 60.2563 62.8938 55.9875C62.8938 51.7125 62.9125 51.2062 62.9875 49.525C63.0563 47.9625 63.3188 47.1188 63.5375 46.5563C63.825 45.8125 64.175 45.275 64.7313 44.7188C65.2938 44.1563 65.825 43.8125 66.5688 43.525C67.1313 43.3063 67.9813 43.0437 69.5375 42.975C71.2188 42.9 71.725 42.8812 76 42.8812ZM76 40C71.6563 40 71.1125 40.0187 69.4063 40.0938C67.7063 40.1688 66.5375 40.4437 65.525 40.8375C64.4688 41.25 63.575 41.7938 62.6875 42.6875C61.7938 43.575 61.25 44.4688 60.8375 45.5188C60.4437 46.5375 60.1688 47.7 60.0938 49.4C60.0188 51.1125 60 51.6563 60 56C60 60.3438 60.0188 60.8875 60.0938 62.5938C60.1688 64.2938 60.4437 65.4625 60.8375 66.475C61.25 67.5313 61.7938 68.425 62.6875 69.3125C63.575 70.2 64.4688 70.75 65.5188 71.1563C66.5375 71.55 67.7 71.825 69.4 71.9C71.1063 71.975 71.65 71.9937 75.9938 71.9937C80.3375 71.9937 80.8813 71.975 82.5875 71.9C84.2875 71.825 85.4563 71.55 86.4688 71.1563C87.5188 70.75 88.4125 70.2 89.3 69.3125C90.1875 68.425 90.7375 67.5313 91.1438 66.4813C91.5375 65.4625 91.8125 64.3 91.8875 62.6C91.9625 60.8938 91.9813 60.35 91.9813 56.0063C91.9813 51.6625 91.9625 51.1188 91.8875 49.4125C91.8125 47.7125 91.5375 46.5438 91.1438 45.5313C90.75 44.4688 90.2063 43.575 89.3125 42.6875C88.425 41.8 87.5313 41.25 86.4813 40.8438C85.4625 40.45 84.3 40.175 82.6 40.1C80.8875 40.0188 80.3438 40 76 40Z" fill="url(#paint1_radial_2711_8477)"/>
<path d="M76 42.8812C80.275 42.8812 80.7813 42.9 82.4625 42.975C84.025 43.0437 84.8688 43.3063 85.4313 43.525C86.175 43.8125 86.7125 44.1625 87.2688 44.7188C87.8313 45.2813 88.175 45.8125 88.4625 46.5563C88.6813 47.1188 88.9438 47.9687 89.0125 49.525C89.0875 51.2125 89.1063 51.7188 89.1063 55.9875C89.1063 60.2625 89.0875 60.7688 89.0125 62.45C88.9438 64.0125 88.6813 64.8563 88.4625 65.4188C88.175 66.1625 87.825 66.7 87.2688 67.2563C86.7063 67.8188 86.175 68.1625 85.4313 68.45C84.8688 68.6688 84.0188 68.9313 82.4625 69C80.775 69.075 80.2688 69.0938 76 69.0938C71.725 69.0938 71.2188 69.075 69.5375 69C67.975 68.9313 67.1313 68.6688 66.5688 68.45C65.825 68.1625 65.2875 67.8125 64.7313 67.2563C64.1688 66.6938 63.825 66.1625 63.5375 65.4188C63.3188 64.8563 63.0563 64.0063 62.9875 62.45C62.9125 60.7625 62.8938 60.2563 62.8938 55.9875C62.8938 51.7125 62.9125 51.2062 62.9875 49.525C63.0563 47.9625 63.3188 47.1188 63.5375 46.5563C63.825 45.8125 64.175 45.275 64.7313 44.7188C65.2938 44.1563 65.825 43.8125 66.5688 43.525C67.1313 43.3063 67.9813 43.0437 69.5375 42.975C71.2188 42.9 71.725 42.8812 76 42.8812ZM76 40C71.6563 40 71.1125 40.0187 69.4063 40.0938C67.7063 40.1688 66.5375 40.4437 65.525 40.8375C64.4688 41.25 63.575 41.7938 62.6875 42.6875C61.7938 43.575 61.25 44.4688 60.8375 45.5188C60.4437 46.5375 60.1688 47.7 60.0938 49.4C60.0188 51.1125 60 51.6563 60 56C60 60.3438 60.0188 60.8875 60.0938 62.5938C60.1688 64.2938 60.4437 65.4625 60.8375 66.475C61.25 67.5313 61.7938 68.425 62.6875 69.3125C63.575 70.2 64.4688 70.75 65.5188 71.1563C66.5375 71.55 67.7 71.825 69.4 71.9C71.1063 71.975 71.65 71.9937 75.9938 71.9937C80.3375 71.9937 80.8813 71.975 82.5875 71.9C84.2875 71.825 85.4563 71.55 86.4688 71.1563C87.5188 70.75 88.4125 70.2 89.3 69.3125C90.1875 68.425 90.7375 67.5313 91.1438 66.4813C91.5375 65.4625 91.8125 64.3 91.8875 62.6C91.9625 60.8938 91.9813 60.35 91.9813 56.0063C91.9813 51.6625 91.9625 51.1188 91.8875 49.4125C91.8125 47.7125 91.5375 46.5438 91.1438 45.5313C90.75 44.4688 90.2063 43.575 89.3125 42.6875C88.425 41.8 87.5313 41.25 86.4813 40.8438C85.4625 40.45 84.3 40.175 82.6 40.1C80.8875 40.0188 80.3438 40 76 40Z" fill="url(#paint2_radial_2711_8477)"/>
<path d="M76 47.7812C71.4625 47.7812 67.7812 51.4625 67.7812 56C67.7812 60.5375 71.4625 64.2188 76 64.2188C80.5375 64.2188 84.2188 60.5375 84.2188 56C84.2188 51.4625 80.5375 47.7812 76 47.7812ZM76 61.3312C73.0563 61.3312 70.6687 58.9438 70.6687 56C70.6687 53.0563 73.0563 50.6687 76 50.6687C78.9438 50.6687 81.3312 53.0563 81.3312 56C81.3312 58.9438 78.9438 61.3312 76 61.3312Z" fill="#000100"/>
<path d="M76 47.7812C71.4625 47.7812 67.7812 51.4625 67.7812 56C67.7812 60.5375 71.4625 64.2188 76 64.2188C80.5375 64.2188 84.2188 60.5375 84.2188 56C84.2188 51.4625 80.5375 47.7812 76 47.7812ZM76 61.3312C73.0563 61.3312 70.6687 58.9438 70.6687 56C70.6687 53.0563 73.0563 50.6687 76 50.6687C78.9438 50.6687 81.3312 53.0563 81.3312 56C81.3312 58.9438 78.9438 61.3312 76 61.3312Z" fill="url(#paint3_radial_2711_8477)"/>
<path d="M76 47.7812C71.4625 47.7812 67.7812 51.4625 67.7812 56C67.7812 60.5375 71.4625 64.2188 76 64.2188C80.5375 64.2188 84.2188 60.5375 84.2188 56C84.2188 51.4625 80.5375 47.7812 76 47.7812ZM76 61.3312C73.0563 61.3312 70.6687 58.9438 70.6687 56C70.6687 53.0563 73.0563 50.6687 76 50.6687C78.9438 50.6687 81.3312 53.0563 81.3312 56C81.3312 58.9438 78.9438 61.3312 76 61.3312Z" fill="url(#paint4_radial_2711_8477)"/>
<path d="M76 47.7812C71.4625 47.7812 67.7812 51.4625 67.7812 56C67.7812 60.5375 71.4625 64.2188 76 64.2188C80.5375 64.2188 84.2188 60.5375 84.2188 56C84.2188 51.4625 80.5375 47.7812 76 47.7812ZM76 61.3312C73.0563 61.3312 70.6687 58.9438 70.6687 56C70.6687 53.0563 73.0563 50.6687 76 50.6687C78.9438 50.6687 81.3312 53.0563 81.3312 56C81.3312 58.9438 78.9438 61.3312 76 61.3312Z" fill="url(#paint5_radial_2711_8477)"/>
<path d="M86.4625 47.4563C86.4625 48.5188 85.6 49.375 84.5438 49.375C83.4813 49.375 82.625 48.5125 82.625 47.4563C82.625 46.3938 83.4875 45.5375 84.5438 45.5375C85.6 45.5375 86.4625 46.4 86.4625 47.4563Z" fill="#000100"/>
<path d="M86.4625 47.4563C86.4625 48.5188 85.6 49.375 84.5438 49.375C83.4813 49.375 82.625 48.5125 82.625 47.4563C82.625 46.3938 83.4875 45.5375 84.5438 45.5375C85.6 45.5375 86.4625 46.4 86.4625 47.4563Z" fill="url(#paint6_radial_2711_8477)"/>
<path d="M86.4625 47.4563C86.4625 48.5188 85.6 49.375 84.5438 49.375C83.4813 49.375 82.625 48.5125 82.625 47.4563C82.625 46.3938 83.4875 45.5375 84.5438 45.5375C85.6 45.5375 86.4625 46.4 86.4625 47.4563Z" fill="url(#paint7_radial_2711_8477)"/>
<path d="M86.4625 47.4563C86.4625 48.5188 85.6 49.375 84.5438 49.375C83.4813 49.375 82.625 48.5125 82.625 47.4563C82.625 46.3938 83.4875 45.5375 84.5438 45.5375C85.6 45.5375 86.4625 46.4 86.4625 47.4563Z" fill="url(#paint8_radial_2711_8477)"/>
</g>
<defs>
<radialGradient id="paint0_radial_2711_8477" cx="0" cy="0" r="1" gradientUnits="userSpaceOnUse" gradientTransform="translate(71.4219 63.9953) rotate(-55.3863) scale(29.1559 29.1518)">
<stop stop-color="#B13589"/>
<stop offset="0.79309" stop-color="#C62F94"/>
<stop offset="1" stop-color="#8A3AC8"/>
</radialGradient>
<radialGradient id="paint1_radial_2711_8477" cx="0" cy="0" r="1" gradientUnits="userSpaceOnUse" gradientTransform="translate(58.2867 41.1426) rotate(-8.13324) scale(44.421 9.50476)">
<stop offset="0.156701" stop-color="#406ADC"/>
<stop offset="0.467799" stop-color="#6A45BE"/>
<stop offset="1" stop-color="#6A45BE" stop-opacity="0"/>
</radialGradient>
<radialGradient id="paint2_radial_2711_8477" cx="0" cy="0" r="1" gradientUnits="userSpaceOnUse" gradientTransform="translate(70.2797 73.1364) rotate(-65.1448) scale(25.8152 25.8086)">
<stop stop-color="#E0E8B7"/>
<stop offset="0.444662" stop-color="#FB8A2E"/>
<stop offset="0.71474" stop-color="#E2425C"/>
<stop offset="1" stop-color="#E2425C" stop-opacity="0"/>
</radialGradient>
<radialGradient id="paint3_radial_2711_8477" cx="0" cy="0" r="1" gradientUnits="userSpaceOnUse" gradientTransform="translate(73.6518 60.1094) rotate(-55.3758) scale(14.9814)">
<stop stop-color="#B13589"/>
<stop offset="0.79309" stop-color="#C62F94"/>
<stop offset="1" stop-color="#8A3AC8"/>
</radialGradient>
<radialGradient id="paint4_radial_2711_8477" cx="0" cy="0" r="1" gradientUnits="userSpaceOnUse" gradientTransform="translate(66.9007 48.3683) rotate(-8.1301) scale(22.831 4.88332)">
<stop offset="0.156701" stop-color="#406ADC"/>
<stop offset="0.467799" stop-color="#6A45BE"/>
<stop offset="1" stop-color="#6A45BE" stop-opacity="0"/>
</radialGradient>
<radialGradient id="paint5_radial_2711_8477" cx="0" cy="0" r="1" gradientUnits="userSpaceOnUse" gradientTransform="translate(73.0647 64.8058) rotate(-65.1363) scale(13.264)">
<stop stop-color="#E0E8B7"/>
<stop offset="0.444662" stop-color="#FB8A2E"/>
<stop offset="0.71474" stop-color="#E2425C"/>
<stop offset="1" stop-color="#E2425C" stop-opacity="0"/>
</radialGradient>
<radialGradient id="paint6_radial_2711_8477" cx="0" cy="0" r="1" gradientUnits="userSpaceOnUse" gradientTransform="translate(83.9955 48.4156) rotate(-55.3759) scale(3.49756 3.49755)">
<stop stop-color="#B13589"/>
<stop offset="0.79309" stop-color="#C62F94"/>
<stop offset="1" stop-color="#8A3AC8"/>
</radialGradient>
<radialGradient id="paint7_radial_2711_8477" cx="0" cy="0" r="1" gradientUnits="userSpaceOnUse" gradientTransform="translate(82.4194 45.6746) rotate(-8.13012) scale(5.33013 1.14006)">
<stop offset="0.156701" stop-color="#406ADC"/>
<stop offset="0.467799" stop-color="#6A45BE"/>
<stop offset="1" stop-color="#6A45BE" stop-opacity="0"/>
</radialGradient>
<radialGradient id="paint8_radial_2711_8477" cx="0" cy="0" r="1" gradientUnits="userSpaceOnUse" gradientTransform="translate(83.8585 49.5121) rotate(-65.1363) scale(3.09663 3.09662)">
<stop stop-color="#E0E8B7"/>
<stop offset="0.444662" stop-color="#FB8A2E"/>
<stop offset="0.71474" stop-color="#E2425C"/>
<stop offset="1" stop-color="#E2425C" stop-opacity="0"/>
</radialGradient>
<clipPath id="clip0_2711_8477">
<rect width="32" height="32" fill="white" transform="translate(20 40)"/>
</clipPath>
<clipPath id="clip1_2711_8477">
<rect width="32" height="32" fill="white" transform="translate(60 40)"/>
</clipPath>
</defs>
</svg>
