<svg width="112" height="112" viewBox="0 0 112 112" fill="none" xmlns="http://www.w3.org/2000/svg">
<path d="M56 112C86.9279 112 112 86.9279 112 56C112 25.0721 86.9279 0 56 0C25.0721 0 0 25.0721 0 56C0 86.9279 25.0721 112 56 112Z" fill="#EFF8FF"/>
<path d="M66 52V48C66 42.4772 61.5228 38 56 38C50.4772 38 46 42.4772 46 48V52M56 61V65M49.6 74H62.4C65.7603 74 67.4405 74 68.7239 73.346C69.8529 72.7708 70.7708 71.8529 71.346 70.7239C72 69.4405 72 67.7603 72 64.4V61.6C72 58.2397 72 56.5595 71.346 55.2761C70.7708 54.1471 69.8529 53.2292 68.7239 52.654C67.4405 52 65.7603 52 62.4 52H49.6C46.2397 52 44.5595 52 43.2761 52.654C42.1471 53.2292 41.2292 54.1471 40.654 55.2761C40 56.5595 40 58.2397 40 61.6V64.4C40 67.7603 40 69.4405 40.654 70.7239C41.2292 71.8529 42.1471 72.7708 43.2761 73.346C44.5595 74 46.2397 74 49.6 74Z" stroke="#0047AB" stroke-width="4" stroke-linecap="round" stroke-linejoin="round"/>
</svg>
