<svg width="113" height="115" viewBox="0 0 113 115" fill="none" xmlns="http://www.w3.org/2000/svg">
<path d="M56.5596 112C87.4875 112 112.56 86.9279 112.56 56C112.56 25.0721 87.4875 0 56.5596 0C25.6316 0 0.55957 25.0721 0.55957 56C0.55957 86.9279 25.6316 112 56.5596 112Z" fill="url(#paint0_linear_2711_7582)"/>
<g filter="url(#filter0_d_2711_7582)">
<mask id="mask0_2711_7582" style="mask-type:alpha" maskUnits="userSpaceOnUse" x="0" y="0" width="113" height="112">
<path d="M56.5596 112C87.4875 112 112.56 86.9279 112.56 56C112.56 25.0721 87.4875 0 56.5596 0C25.6316 0 0.55957 25.0721 0.55957 56C0.55957 86.9279 25.6316 112 56.5596 112Z" fill="url(#paint1_linear_2711_7582)"/>
</mask>
<g mask="url(#mask0_2711_7582)">
<path d="M88.6664 32.1067H24.4531C22.3912 32.1067 20.7197 33.7782 20.7197 35.84V114.24C20.7197 116.302 22.3912 117.973 24.4531 117.973H88.6664C90.7283 117.973 92.3997 116.302 92.3997 114.24V35.84C92.3997 33.7782 90.7283 32.1067 88.6664 32.1067Z" fill="white"/>
</g>
</g>
<path d="M49.8394 39.5733H30.426C29.1889 39.5733 28.186 40.5762 28.186 41.8133C28.186 43.0505 29.1889 44.0533 30.426 44.0533H49.8394C51.0765 44.0533 52.0794 43.0505 52.0794 41.8133C52.0794 40.5762 51.0765 39.5733 49.8394 39.5733Z" fill="#E1EBFA"/>
<path d="M49.8394 70.9333H30.426C29.1889 70.9333 28.186 71.9362 28.186 73.1733C28.186 74.4104 29.1889 75.4133 30.426 75.4133H49.8394C51.0765 75.4133 52.0794 74.4104 52.0794 73.1733C52.0794 71.9362 51.0765 70.9333 49.8394 70.9333Z" fill="#E1EBFA"/>
<path d="M81.1998 50.7733H31.9198C30.2703 50.7733 28.9331 52.1105 28.9331 53.76V61.2266C28.9331 62.8761 30.2703 64.2133 31.9198 64.2133H81.1998C82.8493 64.2133 84.1864 62.8761 84.1864 61.2266V53.76C84.1864 52.1105 82.8493 50.7733 81.1998 50.7733Z" stroke="#0047AB" stroke-width="2"/>
<path d="M81.1994 81.3866H31.9194C29.8575 81.3866 28.186 83.0581 28.186 85.12V91.0933C28.186 93.1552 29.8575 94.8266 31.9194 94.8266H81.1994C83.2612 94.8266 84.9327 93.1552 84.9327 91.0933V85.12C84.9327 83.0581 83.2612 81.3866 81.1994 81.3866Z" fill="#DFEAFB"/>
<path d="M40.1327 23.8933C41.7822 23.8933 43.1193 22.5561 43.1193 20.9066C43.1193 19.2572 41.7822 17.92 40.1327 17.92C38.4832 17.92 37.146 19.2572 37.146 20.9066C37.146 22.5561 38.4832 23.8933 40.1327 23.8933Z" fill="white"/>
<path d="M56.5594 23.8933C58.2089 23.8933 59.5461 22.5561 59.5461 20.9066C59.5461 19.2572 58.2089 17.92 56.5594 17.92C54.9099 17.92 53.5728 19.2572 53.5728 20.9066C53.5728 22.5561 54.9099 23.8933 56.5594 23.8933Z" fill="#0047AB"/>
<path d="M72.9862 23.8933C74.6357 23.8933 75.9728 22.5561 75.9728 20.9066C75.9728 19.2572 74.6357 17.92 72.9862 17.92C71.3367 17.92 69.9995 19.2572 69.9995 20.9066C69.9995 22.5561 71.3367 23.8933 72.9862 23.8933Z" fill="white"/>
<path d="M64.7729 65.7067C66.8347 65.7067 68.5062 64.0352 68.5062 61.9734C68.5062 59.9115 66.8347 58.2401 64.7729 58.2401C62.711 58.2401 61.0396 59.9115 61.0396 61.9734C61.0396 64.0352 62.711 65.7067 64.7729 65.7067Z" fill="#DFEAFB"/>
<path d="M67.6903 77.9295C67.093 77.9295 66.5352 77.9295 66.0275 77.8974C65.4021 77.8551 64.8005 77.6411 64.2888 77.279C63.7772 76.9168 63.3753 76.4206 63.1274 75.8448L59.9773 69.6191C59.7462 69.3501 59.6308 69.0007 59.6563 68.647C59.6818 68.2933 59.846 67.964 60.1132 67.7308C60.3321 67.5549 60.6051 67.4601 60.886 67.4627C61.0927 67.4688 61.2957 67.5195 61.4809 67.6116C61.6662 67.7036 61.8292 67.8347 61.9589 67.9959L63.3895 69.9484L63.4112 69.9738V62.5557C63.4112 62.1876 63.5574 61.8347 63.8176 61.5744C64.0779 61.3142 64.4308 61.168 64.7989 61.168C65.1669 61.168 65.5199 61.3142 65.7801 61.5744C66.0403 61.8347 66.1865 62.1876 66.1865 62.5557V67.409C66.1704 67.2304 66.1917 67.0504 66.249 66.8805C66.3063 66.7106 66.3983 66.5544 66.5193 66.4221C66.6403 66.2897 66.7875 66.184 66.9516 66.1116C67.1156 66.0393 67.293 66.0019 67.4723 66.0019C67.6516 66.0019 67.829 66.0393 67.9931 66.1116C68.1571 66.184 68.3044 66.2897 68.4253 66.4221C68.5463 66.5544 68.6383 66.7106 68.6956 66.8805C68.7529 67.0504 68.7742 67.2304 68.7581 67.409V68.4207C68.7419 68.2421 68.7632 68.0621 68.8205 67.8922C68.8778 67.7223 68.9698 67.5662 69.0908 67.4338C69.2118 67.3014 69.359 67.1957 69.5231 67.1234C69.6872 67.051 69.8645 67.0137 70.0438 67.0137C70.2231 67.0137 70.4005 67.051 70.5646 67.1234C70.7287 67.1957 70.8759 67.3014 70.9968 67.4338C71.1178 67.5662 71.2099 67.7223 71.2671 67.8922C71.3244 68.0621 71.3457 68.2421 71.3296 68.4207V69.2002C71.3135 69.0216 71.3347 68.8417 71.392 68.6717C71.4493 68.5018 71.5414 68.3457 71.6623 68.2133C71.7833 68.0809 71.9305 67.9752 72.0946 67.9029C72.2587 67.8306 72.436 67.7932 72.6153 67.7932C72.7947 67.7932 72.972 67.8306 73.1361 67.9029C73.3002 67.9752 73.4474 68.0809 73.5684 68.2133C73.6893 68.3457 73.7814 68.5018 73.8387 68.6717C73.896 68.8417 73.9172 69.0216 73.9011 69.2002V73.9319C73.8757 75.3871 73.2179 77.8407 70.904 77.8407C70.736 77.8481 69.3128 77.9303 67.6933 77.9303L67.6903 77.9295Z" fill="#0047AB" stroke="white"/>
<defs>
<filter id="filter0_d_2711_7582" x="14.7197" y="23.1067" width="83.6802" height="91.8933" filterUnits="userSpaceOnUse" color-interpolation-filters="sRGB">
<feFlood flood-opacity="0" result="BackgroundImageFix"/>
<feColorMatrix in="SourceAlpha" type="matrix" values="0 0 0 0 0 0 0 0 0 0 0 0 0 0 0 0 0 0 127 0" result="hardAlpha"/>
<feOffset dy="-3"/>
<feGaussianBlur stdDeviation="3"/>
<feColorMatrix type="matrix" values="0 0 0 0 0.788235 0 0 0 0 0.803922 0 0 0 0 0.85098 0 0 0 0.349 0"/>
<feBlend mode="normal" in2="BackgroundImageFix" result="effect1_dropShadow_2711_7582"/>
<feBlend mode="normal" in="SourceGraphic" in2="effect1_dropShadow_2711_7582" result="shape"/>
</filter>
<linearGradient id="paint0_linear_2711_7582" x1="56.5596" y1="0" x2="56.5596" y2="112" gradientUnits="userSpaceOnUse">
<stop stop-color="#E3ECFA"/>
<stop offset="1" stop-color="#DAE7FF"/>
</linearGradient>
<linearGradient id="paint1_linear_2711_7582" x1="56.5596" y1="0" x2="56.5596" y2="112" gradientUnits="userSpaceOnUse">
<stop stop-color="#E3ECFA"/>
<stop offset="1" stop-color="#DAE7FF"/>
</linearGradient>
</defs>
</svg>
